# xmcd
#
# Track frame offsets:
# 150
# 17758
# 32403
# 45387
# 66850
# 76665
# 96302
# 116559
# 131945
# 148585
# 159209
# 169542
# 191747
# 211751
#
# Disc length: 2927 seconds
#
#
# Revision: 0
# Processed by: cddbd v1.5.1PL0 Copyright (c) Steve Scherf et al.
# Submitted via: FreeRIP 2.942 
#
DISCID=b10b6d0e
DTITLE=Wlliams Wetsox - Da Blues des is a Deife
DYEAR=1900
DGENRE=Bayersich-Blues
TTITLE0=S¥zwoate Moi
TTITLE1=Wer Hod d¥Macht
TTITLE2=Da Hoibe Simme Zug
TTITLE3=Es Is Wohr
TTITLE4=Samstag Nacht
TTITLE5=Jazzschui
TTITLE6=Da Willi (Von Geitau)
TTITLE7=Da Boarische Bluesmo
TTITLE8=Br‰uwastl Spezial
TTITLE9=Leid Laﬂt¥s Eich Zeit
TTITLE10=Katz Und Maus
TTITLE11=So Alloa
TTITLE12=Der Bach
TTITLE13=Da Faschingsdienstagmorg¥n
EXTD=
EXTT0=
EXTT1=
EXTT2=
EXTT3=
EXTT4=
EXTT5=
EXTT6=
EXTT7=
EXTT8=
EXTT9=
EXTT10=
EXTT11=
EXTT12=
EXTT13=
PLAYORDER=
